<svg width="60" height="60" viewBox="0 0 50 50" fill="none" xmlns="http://www.w3.org/2000/svg">
<path d="M9.65686 18.4687C9.65686 24.1175 12.1706 30.5906 17.1281 37.7075C20.7981 42.9763 24.5244 46.6587 24.5619 46.695C24.6789 46.8109 24.837 46.8757 25.0016 46.8753C25.1663 46.875 25.3241 46.8095 25.4406 46.6931C25.4781 46.6556 29.2031 42.9319 32.8719 37.6437C37.83 30.5 40.3437 24.0487 40.3437 18.4687C40.3431 10.0075 33.46 3.125 25 3.125C16.54 3.125 9.65686 10.0081 9.65686 18.4687ZM39.0931 18.4687C39.0931 29.9294 27.4262 42.8 24.9975 45.3538C22.565 42.8225 10.9069 30.0787 10.9069 18.4681C10.9069 10.6975 17.2287 4.375 25 4.375C32.7712 4.375 39.0931 10.6975 39.0931 18.4687Z" fill="url(#paint0_linear_61_284)"/>
<g clip-path="url(#clip0_61_284)">
<path d="M32.7801 19.7107C32.7121 19.7106 32.6457 19.6902 32.5894 19.652C32.5331 19.6139 32.4895 19.5598 32.4642 19.4967C32.4388 19.4335 32.433 19.3643 32.4473 19.2978C32.4616 19.2313 32.4955 19.1707 32.5446 19.1236C32.8715 18.8107 33.0508 18.3888 33.0508 17.9388C33.0508 17.299 32.6958 16.7294 32.1227 16.4552C32.047 16.4186 31.9875 16.3552 31.9557 16.2773C31.9239 16.1994 31.922 16.1125 31.9505 16.0334C32.063 15.7169 32.0876 15.3584 32.0208 14.9962C31.8309 14.0435 30.9098 13.3615 29.9079 13.4423C29.6477 13.4634 29.384 13.5478 29.1274 13.6884C29.0656 13.7219 28.9949 13.7355 28.925 13.7273C28.8552 13.7191 28.7896 13.6894 28.7372 13.6425C28.6848 13.5955 28.6483 13.5335 28.6326 13.4649C28.6168 13.3964 28.6227 13.3246 28.6493 13.2595C28.818 12.8447 28.8708 12.4158 28.804 11.9834C28.6387 10.999 27.8055 10.1974 26.8247 10.0779C26.234 10.0076 25.6575 10.1482 25.204 10.4787C25.1459 10.5215 25.0757 10.5446 25.0036 10.5446C24.9315 10.5446 24.8612 10.5215 24.8032 10.4787C24.2934 10.1095 23.629 9.97593 22.9751 10.1095C21.8676 10.3451 21.0766 11.4314 21.1751 12.581C21.1997 12.8306 21.2559 13.0521 21.3473 13.2525C21.4071 13.3861 21.3755 13.5443 21.2665 13.6462C21.1575 13.7447 20.9958 13.7623 20.8692 13.6884C20.6258 13.5493 20.3543 13.4664 20.0747 13.4459C19.0833 13.3685 18.1622 14.0541 17.9829 15.0103C17.9161 15.3724 17.9407 15.7275 18.0532 16.0334C18.113 16.1986 18.0391 16.3779 17.8844 16.4552C17.3114 16.7365 16.9563 17.306 16.9563 17.9388C16.9563 18.3888 17.1356 18.8107 17.459 19.1236C17.5962 19.2537 17.5997 19.4716 17.4661 19.6052C17.336 19.7423 17.1215 19.7459 16.9844 19.6123C16.758 19.3957 16.5779 19.1354 16.4552 18.8471C16.3325 18.5588 16.2698 18.2486 16.2708 17.9353C16.2708 17.1373 16.668 16.413 17.329 15.9806C17.2481 15.6326 17.2411 15.2564 17.3114 14.8802C17.554 13.583 18.795 12.6513 20.1309 12.7603C20.2645 12.7709 20.3946 12.7919 20.5212 12.8201C20.5106 12.7603 20.5036 12.7005 20.4965 12.6373C20.3665 11.1431 21.3965 9.74038 22.838 9.43452C23.5973 9.27984 24.3743 9.4064 25.0071 9.78609C25.5626 9.4521 26.2305 9.31148 26.909 9.39585C28.1852 9.55054 29.2645 10.5912 29.479 11.8673C29.5282 12.1873 29.5282 12.5072 29.479 12.8201C29.602 12.7884 29.7286 12.7673 29.8516 12.7568C31.1876 12.6408 32.4356 13.5689 32.6922 14.8626C32.7626 15.2459 32.7555 15.622 32.6747 15.9771C33.3356 16.4025 33.7329 17.1267 33.7329 17.9318C33.7329 18.5716 33.4797 19.1658 33.0157 19.6087C32.9856 19.6411 32.9491 19.6668 32.9086 19.6844C32.868 19.7019 32.8243 19.7109 32.7801 19.7107V19.7107Z" fill="#3CB4E7"/>
<path d="M28.1324 18.0021C27.5594 18.0021 27.0918 17.5346 27.0918 16.9615C27.0918 16.3885 27.5594 15.9209 28.1324 15.9209C28.7055 15.9209 29.1731 16.3885 29.1731 16.9615C29.1731 17.0982 29.1462 17.2335 29.0939 17.3598C29.0416 17.486 28.9649 17.6007 28.8683 17.6974C28.7716 17.794 28.6569 17.8706 28.5307 17.9229C28.4044 17.9752 28.2691 18.0021 28.1324 18.0021V18.0021ZM28.1324 16.6029C27.9356 16.6029 27.7739 16.7646 27.7739 16.9615C27.7739 17.1584 27.9356 17.3201 28.1324 17.3201C28.3293 17.3201 28.491 17.1584 28.491 16.9615C28.491 16.7646 28.3293 16.6029 28.1324 16.6029ZM21.2453 18.0021C20.6723 18.0021 20.2047 17.5346 20.2047 16.9615C20.2047 16.3885 20.6723 15.9209 21.2453 15.9209C21.8184 15.9209 22.286 16.3885 22.286 16.9615C22.286 17.5381 21.8219 18.0021 21.2453 18.0021ZM21.2453 16.6029C21.0485 16.6029 20.8867 16.7646 20.8867 16.9615C20.8867 17.1584 21.0485 17.3201 21.2453 17.3201C21.4422 17.3201 21.6039 17.1584 21.6039 16.9615C21.6039 16.7646 21.4457 16.6029 21.2453 16.6029ZM24.325 14.8205C23.752 14.8205 23.2844 14.3529 23.2844 13.7799C23.2844 13.2068 23.752 12.7393 24.325 12.7393C24.8981 12.7393 25.3657 13.2068 25.3657 13.7799C25.3657 14.3529 24.8981 14.8205 24.325 14.8205ZM24.325 13.4248C24.1281 13.4248 23.9664 13.5865 23.9664 13.7834C23.9664 13.9803 24.1281 14.142 24.325 14.142C24.5219 14.142 24.6836 13.9803 24.6836 13.7834C24.6836 13.5865 24.5219 13.4248 24.325 13.4248Z" fill="#3CB4E7"/>
<path d="M32.977 21.4897H17.0196C16.6047 21.4897 16.2672 21.1522 16.2672 20.7374V19.7812C16.2672 19.3663 16.6047 19.0288 17.0196 19.0288H32.977C33.3918 19.0288 33.7293 19.3663 33.7293 19.7812V20.7374C33.7293 21.1522 33.3918 21.4897 32.977 21.4897ZM17.0196 19.7108C17.0009 19.7108 16.983 19.7182 16.9698 19.7314C16.9567 19.7446 16.9492 19.7625 16.9492 19.7812V20.7374C16.9492 20.7761 16.9809 20.8077 17.0196 20.8077H32.977C32.9862 20.8077 32.9954 20.8059 33.0039 20.8024C33.0124 20.7988 33.0202 20.7937 33.0267 20.7871C33.0332 20.7806 33.0384 20.7728 33.0419 20.7643C33.0455 20.7558 33.0473 20.7466 33.0473 20.7374V19.7812C33.0473 19.7625 33.0399 19.7446 33.0267 19.7314C33.0135 19.7182 32.9956 19.7108 32.977 19.7108H17.0196Z" fill="#34495C"/>
<path d="M31.1418 31.8751H18.8582C18.6695 31.8761 18.4872 31.8068 18.3468 31.6807C18.2064 31.5547 18.118 31.3808 18.0988 31.1931L17.1144 21.1771C17.106 21.0872 17.1334 20.9976 17.1907 20.9278C17.2479 20.858 17.3305 20.8137 17.4203 20.8044C17.4649 20.7996 17.51 20.8038 17.553 20.8166C17.5961 20.8294 17.6361 20.8507 17.6708 20.8792C17.7055 20.9077 17.7341 20.9428 17.7551 20.9825C17.7761 21.0221 17.7889 21.0656 17.7929 21.1103L18.7773 31.1228C18.7808 31.1615 18.816 31.1896 18.8582 31.1896H31.1418C31.1839 31.1896 31.2191 31.158 31.2226 31.1193L32.207 21.1068C32.2246 20.9205 32.3898 20.7798 32.5796 20.8009C32.766 20.8185 32.9031 20.9873 32.8855 21.1736L31.9011 31.1861C31.8828 31.3748 31.7949 31.5498 31.6545 31.6772C31.5141 31.8046 31.3313 31.8752 31.1418 31.8751Z" fill="#34495C"/>
<path d="M25.0141 31.8749C24.8242 31.8749 24.673 31.7237 24.673 31.5339V28.0569C24.673 27.8671 24.8242 27.7159 25.0141 27.7159C25.2039 27.7159 25.3551 27.8671 25.3551 28.0569V31.5339C25.3551 31.7237 25.2004 31.8749 25.0141 31.8749ZM25.0141 23.0366C24.8242 23.0366 24.673 22.8854 24.673 22.6956V21.1452C24.673 20.9554 24.8242 20.8042 25.0141 20.8042C25.2039 20.8042 25.3551 20.9554 25.3551 21.1452V22.6956C25.3551 22.8854 25.2004 23.0366 25.0141 23.0366ZM27.0742 31.8749H27.0461C26.9563 31.8675 26.873 31.825 26.8144 31.7565C26.7558 31.688 26.7266 31.5992 26.7332 31.5093L27.0496 27.5366C27.0637 27.3503 27.2324 27.2097 27.4152 27.2237C27.6016 27.2378 27.7422 27.403 27.7281 27.5894L27.4117 31.562C27.4012 31.7413 27.25 31.8749 27.0742 31.8749ZM27.7281 23.7011H27.7C27.6102 23.6937 27.5269 23.6512 27.4683 23.5827C27.4097 23.5142 27.3805 23.4253 27.3871 23.3354L27.5629 21.1206C27.5769 20.9343 27.7457 20.7972 27.9285 20.8077C28.1148 20.8218 28.2555 20.987 28.2414 21.1733L28.0656 23.3882C28.0551 23.564 27.9039 23.7011 27.7281 23.7011ZM29.5246 31.8749H29.4965C29.4066 31.8675 29.3234 31.825 29.2648 31.7565C29.2062 31.688 29.177 31.5992 29.1836 31.5093L30.0098 21.1241C30.0238 20.9378 30.1891 20.7972 30.3754 20.8112C30.5617 20.8253 30.7023 20.9905 30.6883 21.1769L29.8621 31.562C29.848 31.7378 29.7004 31.8749 29.5246 31.8749ZM23.0594 31.8749C22.8836 31.8749 22.7324 31.7378 22.7184 31.562L22.409 27.6456C22.3949 27.4593 22.5355 27.294 22.7219 27.28C22.9117 27.2659 23.0734 27.4065 23.0875 27.5929L23.3969 31.5093C23.4109 31.6956 23.2703 31.8608 23.084 31.8749H23.0594ZM22.4055 23.6413C22.2297 23.6413 22.082 23.5077 22.0644 23.3284L21.8887 21.1733C21.8746 20.987 22.0152 20.8218 22.2016 20.8077C22.3914 20.7901 22.5531 20.9308 22.5672 21.1206L22.743 23.2757C22.757 23.462 22.6164 23.6272 22.4301 23.6413H22.4055ZM20.609 31.8749C20.5232 31.8752 20.4405 31.8432 20.3773 31.7852C20.3141 31.7272 20.275 31.6475 20.268 31.562L19.4453 21.1733C19.4312 20.987 19.5719 20.8218 19.7582 20.8077C19.9445 20.7937 20.1098 20.9343 20.1238 21.1206L20.95 31.5058C20.9641 31.6921 20.8234 31.8573 20.6371 31.8714C20.6266 31.8749 20.6195 31.8749 20.609 31.8749Z" fill="#34495C"/>
<path d="M25.014 28.3979C24.1597 28.3979 23.3301 28.2361 22.6164 27.9303C21.3226 27.3783 20.5492 26.4221 20.5492 25.3744C20.5492 24.4322 21.1679 23.5674 22.2508 22.9979C23.0312 22.576 23.9875 22.3545 25.0176 22.3545C26.0793 22.3545 27.1023 22.6076 27.9004 23.0646C28.9058 23.6342 29.4824 24.4744 29.4824 25.3744C29.4824 26.3799 28.7547 27.3115 27.5383 27.8705C26.8035 28.215 25.9316 28.3979 25.014 28.3979V28.3979ZM25.014 23.0365C24.1105 23.0365 23.2422 23.2369 22.5707 23.599C21.7199 24.049 21.2312 24.6924 21.2312 25.3709C21.2312 26.1373 21.85 26.858 22.8836 27.301C23.5164 27.5717 24.2511 27.7158 25.014 27.7158C25.8332 27.7158 26.6066 27.5576 27.2465 27.2518C28.2203 26.8053 28.7969 26.1021 28.7969 25.3709C28.7969 24.724 28.3469 24.0982 27.5594 23.6553C26.8597 23.258 25.9562 23.0365 25.014 23.0365V23.0365Z" fill="url(#paint1_linear_61_284)"/>
<path d="M22.486 27.402C22.254 27.402 22.06 27.359 21.904 27.273C21.748 27.187 21.631 27.063 21.553 26.901C21.475 26.739 21.436 26.545 21.436 26.319C21.436 26.095 21.477 25.902 21.559 25.74C21.641 25.578 21.759 25.453 21.913 25.365C22.067 25.277 22.253 25.233 22.471 25.233C22.625 25.233 22.758 25.256 22.87 25.302C22.984 25.346 23.086 25.412 23.176 25.5L23.083 25.695C23.017 25.637 22.953 25.591 22.891 25.557C22.831 25.523 22.768 25.498 22.702 25.482C22.636 25.464 22.559 25.455 22.471 25.455C22.221 25.455 22.029 25.531 21.895 25.683C21.763 25.833 21.697 26.046 21.697 26.322C21.697 26.6 21.761 26.813 21.889 26.961C22.019 27.109 22.22 27.183 22.492 27.183C22.592 27.183 22.687 27.174 22.777 27.156C22.869 27.136 22.958 27.108 23.044 27.072L22.99 27.207V26.463H22.45V26.268H23.203V27.249C23.117 27.295 23.008 27.332 22.876 27.36C22.746 27.388 22.616 27.402 22.486 27.402ZM23.4983 27.375L24.4313 25.26H24.6473L25.5953 27.375H25.3373L25.0733 26.772L25.1843 26.835H23.8913L24.0113 26.772L23.7533 27.375H23.4983ZM24.5363 25.545L24.0503 26.685L23.9783 26.631H25.0943L25.0403 26.685L24.5423 25.545H24.5363ZM25.9144 27.375V25.26H26.1634V27.159H27.2314V27.375H25.9144ZM21.304 31.375L22.237 29.26H22.453L23.401 31.375H23.143L22.879 30.772L22.99 30.835H21.697L21.817 30.772L21.559 31.375H21.304ZM22.342 29.545L21.856 30.685L21.784 30.631H22.9L22.846 30.685L22.348 29.545H22.342ZM23.4303 31.375L24.2733 30.247V30.34L23.4693 29.26H23.7633L24.4233 30.163H24.3453L24.9993 29.26H25.2963L24.4893 30.34V30.247L25.3323 31.375H25.0383L24.3333 30.418H24.4293L23.7243 31.375H23.4303ZM26.1346 31.375V30.388L26.1886 30.556L25.3126 29.26H25.6006L26.2966 30.313H26.2336L26.9266 29.26H27.2026L26.3296 30.556L26.3836 30.388V31.375H26.1346Z" fill="url(#paint2_linear_61_284)"/>
</g>
<defs>
<linearGradient id="paint0_linear_61_284" x1="25" y1="-8.4375" x2="25" y2="80.3125" gradientUnits="userSpaceOnUse">
<stop stop-color="#3CB4E7"/>
<stop offset="1" stop-color="#C5E9F8" stop-opacity="0.23"/>
</linearGradient>
<linearGradient id="paint1_linear_61_284" x1="25" y1="18.1248" x2="25" y2="30.3123" gradientUnits="userSpaceOnUse">
<stop stop-color="#3CB4E7"/>
<stop offset="1" stop-color="#C5E9F8"/>
</linearGradient>
<linearGradient id="paint2_linear_61_284" x1="25" y1="24.375" x2="25" y2="32.8125" gradientUnits="userSpaceOnUse">
<stop stop-color="#59C1ED"/>
<stop offset="1" stop-color="#C5E9F8" stop-opacity="0"/>
</linearGradient>
<clipPath id="clip0_61_284">
<rect width="22.5" height="22.5" fill="white" transform="translate(13.75 9.375)"/>
</clipPath>
</defs>
</svg>
